<svg width="64" height="64" viewBox="0 0 64 64" fill="none" xmlns="http://www.w3.org/2000/svg">
  <path d="M20 22c0-4 3-7 7-7h10c4 0 7 3 7 7v18c0 4-3 7-7 7H27c-4 0-7-3-7-7V22z" fill="#22C55E" stroke="#15803D" stroke-width="2"/>
  <path d="M27 15v-3c0-2 2-4 5-4s5 2 5 4v3" stroke="#15803D" stroke-width="2" stroke-linecap="round"/>
  <circle cx="32" cy="31" r="7" fill="#FDE68A" stroke="#F59E0B" stroke-width="1.5"/>
  <path d="M32 28v6M29 31h6" stroke="#B45309" stroke-width="1.5" stroke-linecap="round"/>
  <circle cx="18" cy="40" r="5" fill="#FBBF24" stroke="#F59E0B" stroke-width="1.5"/>
  <circle cx="46" cy="38" r="5" fill="#FBBF24" stroke="#F59E0B" stroke-width="1.5"/>
  <path d="M14 48h36" stroke="#64748B" stroke-width="2" stroke-linecap="round"/>
  <path d="M18 48v4M30 48v4M42 48v4" stroke="#64748B" stroke-width="2" stroke-linecap="round"/>
</svg>
